<svg id="图层_1" data-name="图层 1" xmlns="http://www.w3.org/2000/svg" viewBox="0 0 430.97 123.01"><defs><style>.cls-1{fill:#1c7ffe;}.cls-2{fill:#1c80fe;}.cls-3{fill:#ff4057;}</style></defs><path class="cls-1" d="M24.44,68.6c0-7.59.22-15.19-.05-22.78-.36-9.9,7-23.52,21.48-26.92C61.94,15.13,77,24.31,80.94,39.4c1.18,4.5.57,8.27-2.22,11.89a42.83,42.83,0,0,1-4.17,4.65c-5,4.82-10,9.65-15,14.47-3.68,3.55-6.66,3.51-10.29-.1-2.67-2.67-5.36-5.31-8-8a5.42,5.42,0,0,1-1.4-6.3c1.42-3.37,5.67-4.21,8.6-1.63C50.34,56,52,57.75,53.73,59.51c.6.62,1,.62,1.58,0Q62,52.94,68.82,46.42a5.48,5.48,0,0,0,1.44-6.26,18.19,18.19,0,0,0-35.09,2,29.49,29.49,0,0,0-.62,6.07V92.86c0,.4,0,.81,0,1.22a5.05,5.05,0,1,1-10.1,0c0-3.21,0-6.42,0-9.63Z"/><path class="cls-2" d="M223.89,48.22c.74-.18,1.12-.77,1.64-1.15,8.14-6,17.05-6.82,26.25-3.25,8.77,3.4,13.12,10.42,14.39,19.51a25.71,25.71,0,0,1,.31,3.5c0,9.07.06,18.14,0,27.22a5.28,5.28,0,0,1-6.94,5.29,5.22,5.22,0,0,1-3.84-5.41q0-12.47,0-24.93a24.6,24.6,0,0,0-.74-6.51c-1.7-6.34-6.91-10.37-14-10.83A18,18,0,0,0,231,53.59c-4.62,2.52-7.21,6.28-7.18,11.7,0,9.43,0,18.86,0,28.29,0,3.09-1.37,5.12-3.8,5.76A5.38,5.38,0,0,1,212.9,94c-.06-4.48,0-9,0-13.45q0-16.22,0-32.42c0-3.88,2.42-6,6.28-5.69a4.82,4.82,0,0,1,4.42,4C223.71,47,223.79,47.6,223.89,48.22Z"/><path class="cls-2" d="M98.37,53.17q0-14.58,0-29.18c0-3,1.2-4.95,3.47-5.69A5.23,5.23,0,0,1,109,23.52q0,27.66,0,55.32a25.8,25.8,0,0,0,.27,4.11c.68,4.26,2.52,5.87,6.82,5.91,4.05,0,6.57,3.42,5.1,7-1,2.32-3,3.27-5.35,3.49-6.44.6-11.3-2-14.57-7.53-2.25-3.8-2.9-8-2.91-12.33Q98.35,66.32,98.37,53.17Z"/><path class="cls-2" d="M191.7,67.71c-1.2-11.43-7.2-19.7-17.94-23.79s-21.24-2.49-30,5.33c-9.12,8.13-11.15,18.68-8.35,30.16,3.82,15.63,19.51,24.17,34.39,19a26.69,26.69,0,0,0,11.3-7.77c0,1.64-.1,2.82,0,4a5.42,5.42,0,0,0,10.82-.5c.05-1.73,0-3.46,0-5.2C191.84,81.86,192.44,74.75,191.7,67.71Zm-12,11.84c-3.27,7-8.86,10.52-14.75,10.7-11.59,0-19.55-7.59-20.14-17.34-.39-6.55,1.27-12.38,6.28-16.82a18.13,18.13,0,0,1,29.82,9.73A20.79,20.79,0,0,1,179.72,79.55Z"/><path class="cls-3" d="M300.72,78.57a3.51,3.51,0,0,1,.9,2.4l-.06.6-1.68,11.64a3.64,3.64,0,0,1-1.35,2.37,3.55,3.55,0,0,1-2.67.69L293.7,96a3.72,3.72,0,0,1-2.4-1.17,3.48,3.48,0,0,1-.9-2.43l.06-.6,1.68-11.64a3.62,3.62,0,0,1,1.35-2.37,3.51,3.51,0,0,1,2.67-.69l2.16.24A3.66,3.66,0,0,1,300.72,78.57Zm-.36-30.78a4.92,4.92,0,0,1-3.48,8.4,4.84,4.84,0,0,1-3.51-1.44,4.85,4.85,0,0,1,0-7,4.84,4.84,0,0,1,3.51-1.44A4.74,4.74,0,0,1,300.36,47.79Zm0,15.48a4.92,4.92,0,0,1-3.48,8.4,4.84,4.84,0,0,1-3.51-1.44,4.85,4.85,0,0,1,0-7,4.84,4.84,0,0,1,3.51-1.44A4.74,4.74,0,0,1,300.36,63.27Zm42.09.84a3.27,3.27,0,0,1,0,4.8,3.72,3.72,0,0,1-2.61,1l-32.28-.06a3.72,3.72,0,0,1-2.61-1,3.12,3.12,0,0,1-1.05-2.4A3,3,0,0,1,305,64.08a3.79,3.79,0,0,1,2.61-.93H319.2v-2H310a3.79,3.79,0,0,1-2.61-.93,3,3,0,0,1-1.05-2.31,2.87,2.87,0,0,1,1.05-2.28,3.87,3.87,0,0,1,2.61-.9h9.24V53H308.64a3.72,3.72,0,0,1-2.61-1,3.12,3.12,0,0,1-1-2.4,3,3,0,0,1,1-2.37,3.79,3.79,0,0,1,2.61-.93H319.2a1.74,1.74,0,0,1,1.05-1.5,5.19,5.19,0,0,1,2.61-.6h2.22a5.38,5.38,0,0,1,2.64.57,1.71,1.71,0,0,1,1,1.53h10.8a3.79,3.79,0,0,1,2.61.93,3,3,0,0,1,1.05,2.37,3.08,3.08,0,0,1-1.08,2.4,3.83,3.83,0,0,1-2.64,1L328.74,53v1.86h9.18a3.87,3.87,0,0,1,2.61.9,3,3,0,0,1,0,4.56,3.87,3.87,0,0,1-2.61.9h-9.24v2h11.16A3.72,3.72,0,0,1,342.45,64.11Zm-1.92,8.19a3.54,3.54,0,0,1,1.05,2.61v19.5a3.59,3.59,0,0,1-3.66,3.66h-6.24a4.51,4.51,0,0,1-2.61-.72,2.13,2.13,0,0,1-1.05-1.8,2.81,2.81,0,0,1,.6-1.86,1.82,1.82,0,0,1,1.44-.72h2V77.31h-16v1.92h11a4,4,0,0,1,2.49.72,2.21,2.21,0,0,1,0,3.6,4,4,0,0,1-2.49.72h-11v1.56h11a4,4,0,0,1,2.49.72,2.21,2.21,0,0,1,0,3.6,4,4,0,0,1-2.49.72h-11v3.66a3.59,3.59,0,0,1-3.66,3.66h-2.16a3.59,3.59,0,0,1-3.66-3.66V74.91a3.59,3.59,0,0,1,3.66-3.66h27.66A3.54,3.54,0,0,1,340.53,72.3Z"/><path class="cls-3" d="M407.61,83.52a3.54,3.54,0,0,1,1.05,2.61v.78A3.59,3.59,0,0,1,405,90.57H387.42l-.06,4a3.52,3.52,0,0,1-1.05,2.64,3.6,3.6,0,0,1-2.61,1h-2.28a3.48,3.48,0,0,1-2.58-1,3.6,3.6,0,0,1-1-2.61v-4h-18a3.59,3.59,0,0,1-3.66-3.66v-.78a3.59,3.59,0,0,1,3.66-3.66h18V79.23H364.14a3.59,3.59,0,0,1-3.66-3.66V55.71a3.59,3.59,0,0,1,3.66-3.66h4.26l-.06-2.7a3.38,3.38,0,0,1,1-2.67,3.72,3.72,0,0,1,2.7-1h2a3.64,3.64,0,0,1,2.64,1,3.49,3.49,0,0,1,1.08,2.61l.06,2.76h9l-.06-2.7a3.38,3.38,0,0,1,1-2.67,3.72,3.72,0,0,1,2.7-1h2a3.64,3.64,0,0,1,2.64,1,3.49,3.49,0,0,1,1.08,2.61l.06,2.76h4.8a3.59,3.59,0,0,1,3.66,3.66V75.57a3.59,3.59,0,0,1-3.66,3.66H387.42v3.24H405A3.54,3.54,0,0,1,407.61,83.52ZM378,59.43h-8.22v3H378Zm-8.22,12.36H378V68.85h-8.22Zm25.68-12.36h-8.22v3h4a3,3,0,0,1,3.06,3.06v.3a3,3,0,0,1-3.06,3.06h-4v2.94h8.22Z"/></svg>